<svg xmlns="http://www.w3.org/2000/svg" xmlns:xlink="http://www.w3.org/1999/xlink" width="0" height="0" style="display:none;"><symbol viewBox="0 0 24 24" id="instagram-line"><path d="M12.001 9C10.3436 9 9.00098 10.3431 9.00098 12C9.00098 13.6573 10.3441 15 12.001 15C13.6583 15 15.001 13.6569 15.001 12C15.001 10.3427 13.6579 9 12.001 9ZM12.001 7C14.7614 7 17.001 9.2371 17.001 12C17.001 14.7605 14.7639 17 12.001 17C9.24051 17 7.00098 14.7629 7.00098 12C7.00098 9.23953 9.23808 7 12.001 7ZM18.501 6.74915C18.501 7.43926 17.9402 7.99917 17.251 7.99917C16.5609 7.99917 16.001 7.4384 16.001 6.74915C16.001 6.0599 16.5617 5.5 17.251 5.5C17.9393 5.49913 18.501 6.0599 18.501 6.74915ZM12.001 4C9.5265 4 9.12318 4.00655 7.97227 4.0578C7.18815 4.09461 6.66253 4.20007 6.17416 4.38967C5.74016 4.55799 5.42709 4.75898 5.09352 5.09255C4.75867 5.4274 4.55804 5.73963 4.3904 6.17383C4.20036 6.66332 4.09493 7.18811 4.05878 7.97115C4.00703 9.0752 4.00098 9.46105 4.00098 12C4.00098 14.4745 4.00753 14.8778 4.05877 16.0286C4.0956 16.8124 4.2012 17.3388 4.39034 17.826C4.5591 18.2606 4.7605 18.5744 5.09246 18.9064C5.42863 19.2421 5.74179 19.4434 6.17187 19.6094C6.66619 19.8005 7.19148 19.9061 7.97212 19.9422C9.07618 19.9939 9.46203 20 12.001 20C14.4755 20 14.8788 19.9934 16.0296 19.9422C16.8117 19.9055 17.3385 19.7996 17.827 19.6106C18.2604 19.4423 18.5752 19.2402 18.9074 18.9085C19.2436 18.5718 19.4445 18.2594 19.6107 17.8283C19.8013 17.3358 19.9071 16.8098 19.9432 16.0289C19.9949 14.9248 20.001 14.5389 20.001 12C20.001 9.52552 19.9944 9.12221 19.9432 7.97137C19.9064 7.18906 19.8005 6.66149 19.6113 6.17318C19.4434 5.74038 19.2417 5.42635 18.9084 5.09255C18.573 4.75715 18.2616 4.55693 17.8271 4.38942C17.338 4.19954 16.8124 4.09396 16.0298 4.05781C14.9258 4.00605 14.5399 4 12.001 4ZM12.001 2C14.7176 2 15.0568 2.01 16.1235 2.06C17.1876 2.10917 17.9135 2.2775 18.551 2.525C19.2101 2.77917 19.7668 3.1225 20.3226 3.67833C20.8776 4.23417 21.221 4.7925 21.476 5.45C21.7226 6.08667 21.891 6.81333 21.941 7.8775C21.9885 8.94417 22.001 9.28333 22.001 12C22.001 14.7167 21.991 15.0558 21.941 16.1225C21.8918 17.1867 21.7226 17.9125 21.476 18.55C21.2218 19.2092 20.8776 19.7658 20.3226 20.3217C19.7668 20.8767 19.2076 21.22 18.551 21.475C17.9135 21.7217 17.1876 21.89 16.1235 21.94C15.0568 21.9875 14.7176 22 12.001 22C9.28431 22 8.94514 21.99 7.87848 21.94C6.81431 21.8908 6.08931 21.7217 5.45098 21.475C4.79264 21.2208 4.23514 20.8767 3.67931 20.3217C3.12348 19.7658 2.78098 19.2067 2.52598 18.55C2.27848 17.9125 2.11098 17.1867 2.06098 16.1225C2.01348 15.0558 2.00098 14.7167 2.00098 12C2.00098 9.28333 2.01098 8.94417 2.06098 7.8775C2.11014 6.8125 2.27848 6.0875 2.52598 5.45C2.78014 4.79167 3.12348 4.23417 3.67931 3.67833C4.23514 3.1225 4.79348 2.78 5.45098 2.525C6.08848 2.2775 6.81348 2.11 7.87848 2.06C8.94514 2.0125 9.28431 2 12.001 2Z"></path></symbol><symbol viewBox="0 0 24 24" id="telegram-line"><path d="M20 12C20 16.4183 16.4183 20 12 20C7.58172 20 4 16.4183 4 12C4 7.58172 7.58172 4 12 4C16.4183 4 20 7.58172 20 12ZM12 22C17.5228 22 22 17.5228 22 12C22 6.47715 17.5228 2 12 2C6.47715 2 2 6.47715 2 12C2 17.5228 6.47715 22 12 22ZM12.3584 9.38246C11.3857 9.78702 9.4418 10.6244 6.5266 11.8945C6.05321 12.0827 5.80524 12.2669 5.78266 12.4469C5.74451 12.7513 6.12561 12.8711 6.64458 13.0343C6.71517 13.0565 6.78832 13.0795 6.8633 13.1039C7.37388 13.2698 8.06071 13.464 8.41776 13.4717C8.74164 13.4787 9.10313 13.3452 9.50222 13.0711C12.226 11.2325 13.632 10.3032 13.7203 10.2832C13.7826 10.269 13.8689 10.2513 13.9273 10.3032C13.9858 10.3552 13.98 10.4536 13.9739 10.48C13.9361 10.641 12.4401 12.0318 11.6659 12.7515C11.4351 12.9661 11.2101 13.1853 10.9833 13.4039C10.509 13.8611 10.1533 14.204 11.003 14.764C11.8644 15.3317 12.7323 15.8982 13.5724 16.4971C13.9867 16.7925 14.359 17.0579 14.8188 17.0156C15.0861 16.991 15.3621 16.7397 15.5022 15.9903C15.8335 14.2193 16.4847 10.3821 16.6352 8.80083C16.6484 8.6623 16.6318 8.485 16.6185 8.40717C16.6052 8.32934 16.5773 8.21844 16.4762 8.13635C16.3563 8.03913 16.1714 8.01863 16.0887 8.02009C15.7125 8.02672 15.1355 8.22737 12.3584 9.38246Z"></path></symbol><symbol viewBox="0 0 24 24" id="star-fill"><path d="M12.0006 18.26L4.94715 22.2082L6.52248 14.2799L0.587891 8.7918L8.61493 7.84006L12.0006 0.5L15.3862 7.84006L23.4132 8.7918L17.4787 14.2799L19.054 22.2082L12.0006 18.26Z"></path></symbol><symbol viewBox="0 0 24 24" id="check-line"><path d="M9.9997 15.1709L19.1921 5.97852L20.6063 7.39273L9.9997 17.9993L3.63574 11.6354L5.04996 10.2212L9.9997 15.1709Z"></path></symbol><symbol viewBox="0 0 24 24" id="telegram-fill"><path d="M22 12C22 17.5228 17.5228 22 12 22C6.47715 22 2 17.5228 2 12C2 6.47715 6.47715 2 12 2C17.5228 2 22 6.47715 22 12ZM12.3584 9.38246C11.3857 9.78702 9.4418 10.6244 6.5266 11.8945C6.05321 12.0827 5.80524 12.2669 5.78266 12.4469C5.74451 12.7513 6.12561 12.8711 6.64458 13.0343C6.71517 13.0565 6.78832 13.0795 6.8633 13.1039C7.37388 13.2698 8.06071 13.464 8.41776 13.4717C8.74164 13.4787 9.10313 13.3452 9.50222 13.0711C12.226 11.2325 13.632 10.3032 13.7203 10.2832C13.7826 10.269 13.8689 10.2513 13.9273 10.3032C13.9858 10.3552 13.98 10.4536 13.9739 10.48C13.9361 10.641 12.4401 12.0318 11.666 12.7515C11.4351 12.9661 11.2101 13.1853 10.9833 13.4039C10.509 13.8611 10.1533 14.204 11.003 14.764C11.8644 15.3317 12.7323 15.8982 13.5724 16.4971C13.9867 16.7925 14.359 17.0579 14.8188 17.0156C15.0861 16.991 15.3621 16.7397 15.5022 15.9903C15.8335 14.2193 16.4847 10.3821 16.6352 8.80083C16.6484 8.6623 16.6318 8.485 16.6185 8.40717C16.6052 8.32934 16.5773 8.21844 16.4762 8.13635C16.3563 8.03913 16.1714 8.01863 16.0887 8.02009C15.7125 8.02672 15.1355 8.22737 12.3584 9.38246Z"></path></symbol><symbol viewBox="0 0 24 24" id="information-line"><path d="M12 22C6.47715 22 2 17.5228 2 12C2 6.47715 6.47715 2 12 2C17.5228 2 22 6.47715 22 12C22 17.5228 17.5228 22 12 22ZM12 20C16.4183 20 20 16.4183 20 12C20 7.58172 16.4183 4 12 4C7.58172 4 4 7.58172 4 12C4 16.4183 7.58172 20 12 20ZM11 7H13V9H11V7ZM11 11H13V17H11V11Z"></path></symbol><symbol viewBox="0 0 24 24" id="mail-line"><path d="M3 3H21C21.5523 3 22 3.44772 22 4V20C22 20.5523 21.5523 21 21 21H3C2.44772 21 2 20.5523 2 20V4C2 3.44772 2.44772 3 3 3ZM20 7.23792L12.0718 14.338L4 7.21594V19H20V7.23792ZM4.51146 5L12.0619 11.662L19.501 5H4.51146Z"></path></symbol><symbol viewBox="0 0 24 24" id="youtube-line"><path d="M19.6069 6.99482C19.5307 6.69695 19.3152 6.47221 19.0684 6.40288C18.6299 6.28062 16.501 6 12.001 6C7.50098 6 5.37252 6.28073 4.93225 6.40323C4.68776 6.47123 4.4723 6.69593 4.3951 6.99482C4.2863 7.41923 4.00098 9.19595 4.00098 12C4.00098 14.804 4.2863 16.5808 4.3954 17.0064C4.47126 17.3031 4.68676 17.5278 4.93251 17.5968C5.37252 17.7193 7.50098 18 12.001 18C16.501 18 18.6299 17.7194 19.0697 17.5968C19.3142 17.5288 19.5297 17.3041 19.6069 17.0052C19.7157 16.5808 20.001 14.8 20.001 12C20.001 9.2 19.7157 7.41923 19.6069 6.99482ZM21.5442 6.49818C22.001 8.28 22.001 12 22.001 12C22.001 12 22.001 15.72 21.5442 17.5018C21.2897 18.4873 20.547 19.2618 19.6056 19.5236C17.8971 20 12.001 20 12.001 20C12.001 20 6.10837 20 4.39637 19.5236C3.45146 19.2582 2.70879 18.4836 2.45774 17.5018C2.00098 15.72 2.00098 12 2.00098 12C2.00098 12 2.00098 8.28 2.45774 6.49818C2.71227 5.51273 3.45495 4.73818 4.39637 4.47636C6.10837 4 12.001 4 12.001 4C12.001 4 17.8971 4 19.6056 4.47636C20.5505 4.74182 21.2932 5.51636 21.5442 6.49818ZM10.001 15.5V8.5L16.001 12L10.001 15.5Z"></path></symbol><symbol viewBox="0 0 24 24" id="tiktok-line"><path d="M11.0004 2V8.41396C10.5947 8.33909 10.1768 8.3 9.75039 8.3C5.96724 8.3 2.90039 11.3668 2.90039 15.15C2.90039 18.9332 5.96724 22 9.75039 22C13.5335 22 16.6004 18.9332 16.6004 15.15V11.4136C17.6366 11.8539 18.7662 12.1 20.0005 12.1H21.0005V6.5H20.0005C18.0966 6.5 16.6004 4.96259 16.6004 3V2H11.0004ZM13.0004 4H14.688C15.0818 6.22009 16.7673 7.99607 19.0005 8.4091V10.0282C17.9624 9.87602 17.0253 9.48645 16.1567 8.905L14.6004 7.86327V15.15C14.6004 17.8286 12.429 20 9.75039 20C7.07181 20 4.90039 17.8286 4.90039 15.15C4.90039 12.4714 7.07181 10.3 9.75039 10.3C9.83431 10.3 9.91769 10.3021 10.0005 10.3063V11.9095C9.91795 11.9032 9.83454 11.9 9.75039 11.9C7.95547 11.9 6.50039 13.3551 6.50039 15.15C6.50039 16.9449 7.95547 18.4 9.75039 18.4C11.5453 18.4 13.0004 16.9449 13.0004 15.15C13.0004 11.4334 12.9992 7.71665 13.0004 4ZM8.50039 15.15C8.50039 14.4596 9.06003 13.9 9.75039 13.9C10.4407 13.9 11.0004 14.4596 11.0004 15.15C11.0004 15.8404 10.4407 16.4 9.75039 16.4C9.06003 16.4 8.50039 15.8404 8.50039 15.15Z"></path></symbol><symbol viewBox="0 0 24 24" id="route-line"><path d="M4 15V8.5C4 6.01472 6.01472 4 8.5 4C10.9853 4 13 6.01472 13 8.5V15.5C13 16.8807 14.1193 18 15.5 18C16.8807 18 18 16.8807 18 15.5V8.82929C16.8348 8.41746 16 7.30622 16 6C16 4.34315 17.3431 3 19 3C20.6569 3 22 4.34315 22 6C22 7.30622 21.1652 8.41746 20 8.82929V15.5C20 17.9853 17.9853 20 15.5 20C13.0147 20 11 17.9853 11 15.5V8.5C11 7.11929 9.88071 6 8.5 6C7.11929 6 6 7.11929 6 8.5V15H9L5 20L1 15H4ZM19 7C19.5523 7 20 6.55228 20 6C20 5.44772 19.5523 5 19 5C18.4477 5 18 5.44772 18 6C18 6.55228 18.4477 7 19 7Z"></path></symbol><symbol viewBox="0 0 24 24" id="user-community-line"><path d="M5.23379 7.72989C6.65303 5.48625 9.15342 4 12.0002 4C14.847 4 17.3474 5.48625 18.7667 7.72989L20.4569 6.66071C18.6865 3.86199 15.5612 2 12.0002 2C8.43928 2 5.31393 3.86199 3.54356 6.66071L5.23379 7.72989ZM12.0002 20C9.15342 20 6.65303 18.5138 5.23379 16.2701L3.54356 17.3393C5.31393 20.138 8.43928 22 12.0002 22C15.5612 22 18.6865 20.138 20.4569 17.3393L18.7667 16.2701C17.3474 18.5138 14.847 20 12.0002 20ZM12 8C12.5523 8 13 8.44772 13 9C13 9.55228 12.5523 10 12 10C11.4477 10 11 9.55228 11 9C11 8.44772 11.4477 8 12 8ZM12 12C13.6569 12 15 10.6569 15 9C15 7.34315 13.6569 6 12 6C10.3431 6 9 7.34315 9 9C9 10.6569 10.3431 12 12 12ZM12 15C10.8954 15 10 15.8954 10 17H8C8 14.7909 9.79086 13 12 13C14.2091 13 16 14.7909 16 17H14C14 15.8954 13.1046 15 12 15ZM3 11C2.44772 11 2 11.4477 2 12C2 12.5523 2.44772 13 3 13C3.55228 13 4 12.5523 4 12C4 11.4477 3.55228 11 3 11ZM0 12C0 10.3431 1.34315 9 3 9C4.65685 9 6 10.3431 6 12C6 13.6569 4.65685 15 3 15C1.34315 15 0 13.6569 0 12ZM20 12C20 11.4477 20.4477 11 21 11C21.5523 11 22 11.4477 22 12C22 12.5523 21.5523 13 21 13C20.4477 13 20 12.5523 20 12ZM21 9C19.3431 9 18 10.3431 18 12C18 13.6569 19.3431 15 21 15C22.6569 15 24 13.6569 24 12C24 10.3431 22.6569 9 21 9Z"></path></symbol><symbol viewBox="0 0 24 24" id="map-2-line"><path d="M2 5L9 2L15 5L21.303 2.2987C21.5569 2.18992 21.8508 2.30749 21.9596 2.56131C21.9862 2.62355 22 2.69056 22 2.75827V19L15 22L9 19L2.69696 21.7013C2.44314 21.8101 2.14921 21.6925 2.04043 21.4387C2.01375 21.3765 2 21.3094 2 21.2417V5ZM16 19.3955L20 17.6812V5.03308L16 6.74736V19.3955ZM14 19.2639V6.73607L10 4.73607V17.2639L14 19.2639ZM8 17.2526V4.60451L4 6.31879V18.9669L8 17.2526Z"></path></symbol><symbol viewBox="0 0 24 24" id="map-pin-4-line"><path d="M11 17.9381C7.05369 17.446 4 14.0796 4 10C4 5.58172 7.58172 2 12 2C16.4183 2 20 5.58172 20 10C20 14.0796 16.9463 17.446 13 17.9381V21H11V17.9381ZM12 16C15.3137 16 18 13.3137 18 10C18 6.68629 15.3137 4 12 4C8.68629 4 6 6.68629 6 10C6 13.3137 8.68629 16 12 16ZM5 22H19V24H5V22Z"></path></symbol><symbol viewBox="0 0 24 24" id="info-card-line"><path d="M3 6H21V18H3V6ZM2 4C1.44772 4 1 4.44772 1 5V19C1 19.5523 1.44772 20 2 20H22C22.5523 20 23 19.5523 23 19V5C23 4.44772 22.5523 4 22 4H2ZM13 9H19V11H13V9ZM18 13H13V15H18V13ZM6 13H7V16H9V11H6V13ZM9 8H7V10H9V8Z"></path></symbol><symbol viewBox="0 0 24 24" id="thumb-up-line"><path d="M14.5998 8.00033H21C22.1046 8.00033 23 8.89576 23 10.0003V12.1047C23 12.3659 22.9488 12.6246 22.8494 12.8662L19.755 20.3811C19.6007 20.7558 19.2355 21.0003 18.8303 21.0003H2C1.44772 21.0003 1 20.5526 1 20.0003V10.0003C1 9.44804 1.44772 9.00033 2 9.00033H5.48184C5.80677 9.00033 6.11143 8.84246 6.29881 8.57701L11.7522 0.851355C11.8947 0.649486 12.1633 0.581978 12.3843 0.692483L14.1984 1.59951C15.25 2.12534 15.7931 3.31292 15.5031 4.45235L14.5998 8.00033ZM7 10.5878V19.0003H18.1606L21 12.1047V10.0003H14.5998C13.2951 10.0003 12.3398 8.77128 12.6616 7.50691L13.5649 3.95894C13.6229 3.73105 13.5143 3.49353 13.3039 3.38837L12.6428 3.0578L7.93275 9.73038C7.68285 10.0844 7.36341 10.3746 7 10.5878ZM5 11.0003H3V19.0003H5V11.0003Z"></path></symbol><symbol viewBox="0 0 24 24" id="file-text-line"><path d="M21 8V20.9932C21 21.5501 20.5552 22 20.0066 22H3.9934C3.44495 22 3 21.556 3 21.0082V2.9918C3 2.45531 3.4487 2 4.00221 2H14.9968L21 8ZM19 9H14V4H5V20H19V9ZM8 7H11V9H8V7ZM8 11H16V13H8V11ZM8 15H16V17H8V15Z"></path></symbol><symbol viewBox="0 0 24 24" id="smartphone-line"><path d="M7 4V20H17V4H7ZM6 2H18C18.5523 2 19 2.44772 19 3V21C19 21.5523 18.5523 22 18 22H6C5.44772 22 5 21.5523 5 21V3C5 2.44772 5.44772 2 6 2ZM12 17C12.5523 17 13 17.4477 13 18C13 18.5523 12.5523 19 12 19C11.4477 19 11 18.5523 11 18C11 17.4477 11.4477 17 12 17Z"></path></symbol><symbol viewBox="0 0 24 24" id="add-line"><path d="M11 11V5H13V11H19V13H13V19H11V13H5V11H11Z"></path></symbol><symbol viewBox="0 0 24 24" id="global-line"><path d="M12 22C6.47715 22 2 17.5228 2 12C2 6.47715 6.47715 2 12 2C17.5228 2 22 6.47715 22 12C22 17.5228 17.5228 22 12 22ZM9.71002 19.6674C8.74743 17.6259 8.15732 15.3742 8.02731 13H4.06189C4.458 16.1765 6.71639 18.7747 9.71002 19.6674ZM10.0307 13C10.1811 15.4388 10.8778 17.7297 12 19.752C13.1222 17.7297 13.8189 15.4388 13.9693 13H10.0307ZM19.9381 13H15.9727C15.8427 15.3742 15.2526 17.6259 14.29 19.6674C17.2836 18.7747 19.542 16.1765 19.9381 13ZM4.06189 11H8.02731C8.15732 8.62577 8.74743 6.37407 9.71002 4.33256C6.71639 5.22533 4.458 7.8235 4.06189 11ZM10.0307 11H13.9693C13.8189 8.56122 13.1222 6.27025 12 4.24799C10.8778 6.27025 10.1811 8.56122 10.0307 11ZM14.29 4.33256C15.2526 6.37407 15.8427 8.62577 15.9727 11H19.9381C19.542 7.8235 17.2836 5.22533 14.29 4.33256Z"></path></symbol><symbol viewBox="0 0 24 24" id="arrow-down-s-line"><path d="M11.9999 13.1714L16.9497 8.22168L18.3639 9.63589L11.9999 15.9999L5.63599 9.63589L7.0502 8.22168L11.9999 13.1714Z"></path></symbol></svg>